HIERARCHY
ROOT Hips
{
	OFFSET -14.64140 90.27770 -84.91600
	CHANNELS 6 Xposition Yposition Zposition Zrotation Xrotation Yrotation
	JOINT Spine
	{
		OFFSET 0.00000 13.20850 -1.60436
		CHANNELS 3 Zrotation Xrotation Yrotation
		JOINT Spine1
		{
			OFFSET 0.00000 8.61716 0.00000
			CHANNELS 3 Zrotation Xrotation Yrotation
			JOINT Spine2
			{
				OFFSET 0.00000 8.61717 0.00000
				CHANNELS 3 Zrotation Xrotation Yrotation
				JOINT Spine3
				{
					OFFSET 0.00000 8.61717 0.00000
					CHANNELS 3 Zrotation Xrotation Yrotation
					JOINT Neck
					{
						OFFSET 0.00000 11.07920 1.10792
						CHANNELS 3 Zrotation Xrotation Yrotation
						JOINT Neck1
						{
							OFFSET 0.00000 7.08032 0.00000
							CHANNELS 3 Zrotation Xrotation Yrotation
							JOINT Head
							{
								OFFSET 0.00000 7.08031 0.00000
								CHANNELS 3 Zrotation Xrotation Yrotation
								End site
								{
									OFFSET 0.00000 0.00000 0.00000
								}
							}
						}
					}
					JOINT RightShoulder
					{
						OFFSET -0.01000 7.91373 5.19711
						CHANNELS 3 Zrotation Xrotation Yrotation
						JOINT RightArm
						{
							OFFSET -18.41580 0.00000 0.00000
							CHANNELS 3 Zrotation Xrotation Yrotation
							JOINT RightForeArm
							{
								OFFSET -29.11090 0.00000 0.00000
								CHANNELS 3 Zrotation Xrotation Yrotation
								JOINT RightHand
								{
									OFFSET -24.65040 0.00000 0.00000
									CHANNELS 3 Zrotation Xrotation Yrotation
									JOINT RightHandThumb1
									{
										OFFSET -5.35114 -0.85590 3.97906
										CHANNELS 3 Zrotation Xrotation Yrotation
										JOINT RightHandThumb2
										{
											OFFSET -4.52789 0.00000 0.00000
											CHANNELS 3 Zrotation Xrotation Yrotation
											JOINT RightHandThumb3
											{
												OFFSET -2.46976 0.00000 0.00000
												CHANNELS 3 Zrotation Xrotation Yrotation
												End site
												{
													OFFSET 0.00000 0.00000 0.00000
												}
											}
										}
									}
									JOINT RightHandIndex1
									{
										OFFSET -14.26970 0.00000 2.88139
										CHANNELS 3 Zrotation Xrotation Yrotation
										JOINT RightHandIndex2
										{
											OFFSET -5.48836 0.00000 0.00000
											CHANNELS 3 Zrotation Xrotation Yrotation
											JOINT RightHandIndex3
											{
												OFFSET -3.01859 0.00000 0.00000
												CHANNELS 3 Zrotation Xrotation Yrotation
												End site
												{
													OFFSET 0.00000 0.00000 0.00000
												}
											}
										}
									}
									JOINT RightHandMiddle1
									{
										OFFSET -14.26970 0.00000 -0.09147
										CHANNELS 3 Zrotation Xrotation Yrotation
										JOINT RightHandMiddle2
										{
											OFFSET -6.17441 0.00000 0.00000
											CHANNELS 3 Zrotation Xrotation Yrotation
											JOINT RightHandMiddle3
											{
												OFFSET -3.56743 0.00000 0.00000
												CHANNELS 3 Zrotation Xrotation Yrotation
												End site
												{
													OFFSET 0.00000 0.00000 0.00000
												}
											}
										}
									}
									JOINT RightHandRing1
									{
										OFFSET -12.69180 0.00000 -3.06433
										CHANNELS 3 Zrotation Xrotation Yrotation
										JOINT RightHandRing2
										{
											OFFSET -5.62556 0.00000 0.00000
											CHANNELS 3 Zrotation Xrotation Yrotation
											JOINT RightHandRing3
											{
												OFFSET -3.56744 0.00000 0.00000
												CHANNELS 3 Zrotation Xrotation Yrotation
												End site
												{
													OFFSET 0.00000 0.00000 0.00000
												}
											}
										}
									}
									JOINT RightHandPinky1
									{
										OFFSET -11.11390 0.00000 -6.03719
										CHANNELS 3 Zrotation Xrotation Yrotation
										JOINT RightHandPinky2
										{
											OFFSET -4.52789 0.00000 0.00000
											CHANNELS 3 Zrotation Xrotation Yrotation
											JOINT RightHandPinky3
											{
												OFFSET -2.46976 0.00000 0.00000
												CHANNELS 3 Zrotation Xrotation Yrotation
												End site
												{
													OFFSET 0.00000 0.00000 0.00000
												}
											}
										}
									}
								}
							}
						}
					}
					JOINT LeftShoulder
					{
						OFFSET 0.01000 7.91373 5.19711
						CHANNELS 3 Zrotation Xrotation Yrotation
						JOINT LeftArm
						{
							OFFSET 18.41580 0.00000 0.00000
							CHANNELS 3 Zrotation Xrotation Yrotation
							JOINT LeftForeArm
							{
								OFFSET 29.11090 0.00000 0.00000
								CHANNELS 3 Zrotation Xrotation Yrotation
								JOINT LeftHand
								{
									OFFSET 24.65040 0.00000 0.00000
									CHANNELS 3 Zrotation Xrotation Yrotation
									JOINT LeftHandThumb1
									{
										OFFSET 5.35114 -0.85590 3.97906
										CHANNELS 3 Zrotation Xrotation Yrotation
										JOINT LeftHandThumb2
										{
											OFFSET 4.52789 0.00000 0.00000
											CHANNELS 3 Zrotation Xrotation Yrotation
											JOINT LeftHandThumb3
											{
												OFFSET 2.46977 0.00000 0.00000
												CHANNELS 3 Zrotation Xrotation Yrotation
												End site
												{
													OFFSET 0.00000 0.00000 0.00000
												}
											}
										}
									}
									JOINT LeftHandIndex1
									{
										OFFSET 14.26970 0.00000 2.88139
										CHANNELS 3 Zrotation Xrotation Yrotation
										JOINT LeftHandIndex2
										{
											OFFSET 5.48836 0.00000 0.00000
											CHANNELS 3 Zrotation Xrotation Yrotation
											JOINT LeftHandIndex3
											{
												OFFSET 3.01859 0.00000 0.00000
												CHANNELS 3 Zrotation Xrotation Yrotation
												End site
												{
													OFFSET 0.00000 0.00000 0.00000
												}
											}
										}
									}
									JOINT LeftHandMiddle1
									{
										OFFSET 14.26970 0.00000 -0.09147
										CHANNELS 3 Zrotation Xrotation Yrotation
										JOINT LeftHandMiddle2
										{
											OFFSET 6.17440 0.00000 0.00000
											CHANNELS 3 Zrotation Xrotation Yrotation
											JOINT LeftHandMiddle3
											{
												OFFSET 3.56744 0.00000 0.00000
												CHANNELS 3 Zrotation Xrotation Yrotation
												End site
												{
													OFFSET 0.00000 0.00000 0.00000
												}
											}
										}
									}
									JOINT LeftHandRing1
									{
										OFFSET 12.69180 0.00000 -3.06433
										CHANNELS 3 Zrotation Xrotation Yrotation
										JOINT LeftHandRing2
										{
											OFFSET 5.62556 0.00000 0.00000
											CHANNELS 3 Zrotation Xrotation Yrotation
											JOINT LeftHandRing3
											{
												OFFSET 3.56744 0.00000 0.00000
												CHANNELS 3 Zrotation Xrotation Yrotation
												End site
												{
													OFFSET 0.00000 0.00000 0.00000
												}
											}
										}
									}
									JOINT LeftHandPinky1
									{
										OFFSET 11.11390 0.00000 -6.03719
										CHANNELS 3 Zrotation Xrotation Yrotation
										JOINT LeftHandPinky2
										{
											OFFSET 4.52789 0.00000 0.00000
											CHANNELS 3 Zrotation Xrotation Yrotation
											JOINT LeftHandPinky3
											{
												OFFSET 2.46976 0.00000 0.00000
												CHANNELS 3 Zrotation Xrotation Yrotation
												End site
												{
													OFFSET 0.00000 0.00000 0.00000
												}
											}
										}
									}
								}
							}
						}
					}
					JOINT pCube4
					{
						OFFSET 0.00000 10.91090 1.10792
						CHANNELS 3 Zrotation Xrotation Yrotation
						End site
						{
							OFFSET 0.00000 0.00000 0.00000
						}
					}
				}
			}
		}
	}
	JOINT RightUpLeg
	{
		OFFSET -9.98441 0.00000 0.00000
		CHANNELS 3 Zrotation Xrotation Yrotation
		JOINT RightLeg
		{
			OFFSET 0.00000 -42.11790 0.00000
			CHANNELS 3 Zrotation Xrotation Yrotation
			JOINT RightFoot
			{
				OFFSET 0.00000 -45.00020 -0.00001
				CHANNELS 3 Zrotation Xrotation Yrotation
				JOINT RightForeFoot
				{
					OFFSET 0.00000 -3.74820 0.00000
					CHANNELS 3 Zrotation Xrotation Yrotation
					JOINT RightToeBase
					{
						OFFSET 0.00000 0.06325 14.43120
						CHANNELS 3 Zrotation Xrotation Yrotation
						End site
						{
							OFFSET 0.00000 0.00000 0.00000
						}
					}
				}
			}
		}
	}
	JOINT LeftUpLeg
	{
		OFFSET 9.98441 0.00000 0.00000
		CHANNELS 3 Zrotation Xrotation Yrotation
		JOINT LeftLeg
		{
			OFFSET 0.00000 -42.11800 0.00000
			CHANNELS 3 Zrotation Xrotation Yrotation
			JOINT LeftFoot
			{
				OFFSET 0.00000 -45.00070 0.00000
				CHANNELS 3 Zrotation Xrotation Yrotation
				JOINT LeftForeFoot
				{
					OFFSET 0.00000 -3.74824 0.00000
					CHANNELS 3 Zrotation Xrotation Yrotation
					JOINT LeftToeBase
					{
						OFFSET 0.00000 0.06325 14.43110
						CHANNELS 3 Zrotation Xrotation Yrotation
						End site
						{
							OFFSET 0.00000 0.00000 0.00000
						}
					}
				}
			}
		}
	}
}
MOTION
Frames: 4
Frame Time: 0.050000
0.012367641038297326 -0.04556404464837119 -0.030081888425218556 0.046798726732957874 -0.032349209847944066 -0.022782747689219906 -4.760518612466011 0.8492625952872671 -0.4441705097743811 -0.9402348454285436 3.336136398290613 0.40677442792207064 -1.2497698468905252 -1.7989236403691633 -1.251487563421585 -0.5852260027359368 0.30763199633109767 -0.9126909411466596 -0.8064685408883924 12.310230748707177 1.0902137355887904 -0.09038766102814152 1.013347781345232 0.21798364597112188 -0.45614278935090125 -12.378856779321229 0.1435873160764674 -0.64607603426264 1.0597955698977144 -12.598059719492875 68.31334413060705 14.668830765172922 5.813844200324732 29.035057678379246 6.821627286279279 84.44304454179334 23.995082085660325 -0.2904313516344364 -5.7683888173394 4.491832243232143 -0.10216970151374281 -1.578269319052664 0.0017670528500769766 0.0008136283163231335 -56.19431028507578 -0.048487286630678604 -0.014639037944132372 -56.272652648613494 -38.76720917201345 0.0015175184984822468 0.0018179589043635337 0.03221953431247505 0.03556978384913408 0.029035972464054857 0.020869664257331836 0.012107717468545557 0.03275111426910706 -36.696337351583836 -0.025993454435260757 0.015159947506716063 0.030550846944163167 -0.01635679423064066 0.0024403869131236844 0.0160414860220496 -0.00609465829528962 -0.04608451753044263 -19.798397904312157 0.03143742682271873 0.022666534637713485 0.027792160206889453 0.016255106792685752 -0.04477633653709177 -0.018004753051308886 0.00208047320764239 -0.025723534024472045 24.07274010909543 0.025147241548269052 -0.04791393104381218 28.859699239410357 0.014382138120235451 -0.0059087105674196306 28.89943309058875 0.014159452117430311 0.03039603408068318 4.223779963601657 1.3771275881214182 12.855166107690307 -60.20333926444979 24.903611615308403 -21.673905522371236 2.458074909443014 13.800086604247648 -67.08078181545193 -11.834536102160373 8.596850385217781 -5.9880790784838736 -0.4893731379493309 0.0735227233250272 -8.118506881137872 -0.027326419610641656 0.007458690267668955 44.59078824767736 -0.015982540068522812 -0.018874177888899182 44.60095195613 12.481406899134473 -0.040312990676347145 -0.003942574630058918 0.02417396449011241 -0.02506817616034427 0.01695199472354507 0.03918769566728809 0.003582483625577559 0.0004419965674621527 11.108977193209274 0.025696551453973458 0.03351977121517051 -0.020063502823287206 0.01637588506459254 0.002235652294292824 -0.01289938512954916 -0.019808964670238547 -0.008523106461596458 4.79152077541242 -0.027135325255080434 0.03490142212190911 0.0013357380008577639 0.0296420399154468 0.027057309979364973 -0.030533998839863352 0.021457796581369957 -0.04898345429855218 -5.617162189107608 -0.04755080776498534 0.023778364738301194 -6.684783552352646 -0.004913898241829718 0.03340493146225808 -6.74404579521927 -0.018669621219282104 -0.024826807877873308 -0.003945010052229316 0.030788981476489643 -0.01609594114430399 8.00465295136536 3.4680759349855546 -19.19497686801223 0.0241947453272154 10.399102773305142 0.039015573473709 -5.666673186823897 -15.658819270034435 3.210601505213724 0.04463790961777538 0.0033397298634006505 -0.027210949342899245 0.03598480965660597 4.671956730454683 -0.017832887393163372 12.462379325433476 -8.201725891834327 6.873086771210594 0.013564532301802245 46.41779399278071 -0.01244956160946133 -4.301012344447574 -14.742115023231943 -3.8608861265336585 -0.019111610818095957 -0.01651014060251904 -0.01765267398342844 -0.04372345020428723 -10.777263286739439 0.027120265001925603 
0.025920497909749648 0.013218892598308106 -0.005202094863636191 0.005135838088159567 0.011333181639152898 -0.014876888610673853 -4.655064468875111 0.8490530760515311 -0.461559155653623 -0.9646158878151897 3.3608440882585944 0.417910273740146 -1.23883110563181 -1.7832375497417992 -1.3845108436451463 -0.5537741752846321 0.24574214629774802 -0.8843103308578467 -0.7383423767396367 12.224138430287402 0.9111576749706428 -0.046006375053425023 0.9686206998929473 -0.05779155450855605 -0.3764308726677824 -12.45033993570005 0.08336170734534876 -0.6209482810861712 1.0030502036835418 -12.650924801513082 68.25580353719407 14.92592217475076 5.388351323145145 29.42295140066838 7.215734261105416 83.3151036955832 24.230899286285286 -0.24186689882104767 -5.681476334483777 4.523050269267969 -0.14202503454443807 -1.5640115518659579 -0.03759438673387334 -0.010711788194257218 -56.25217640198524 0.015957990967552304 0.00015891750513312647 -56.20869030592428 -38.795765079616125 0.019256242971359642 0.02546011594127922 -0.027229621420576427 -0.034562315799263166 -0.02499094424547149 0.033793059157810786 0.022437070949110804 0.013690208310092515 -36.70334057044513 -0.02530706154154541 -0.03454687929273587 0.03769697229362972 -0.04649109460883186 -0.0063622209904204705 -0.04798271879562609 -0.001990344790772793 -0.03482561126311394 -19.724288882046757 0.03173422441045846 -0.03764322043834858 0.024179443619306778 0.03925920783659414 0.020743399633507874 -0.01602881840257 -0.023622886111744765 0.005832541905474164 24.022946735637138 -0.03976546031515562 -0.014971765748347217 28.866643153583883 -0.018629737180856466 -0.0021200173700332598 28.880418778448682 -0.04210406708881457 0.04032016804702571 4.176493063670871 1.387547071230528 12.645537670134757 -60.20181231906432 25.510371681461294 -21.480778188409037 2.3039495419055323 13.420734856425938 -66.18583089696126 -11.837683278343581 8.534258476219378 -5.966126275714133 -0.42732149080423365 0.09353376675414916 -8.093335855785783 -0.046360231357134116 -0.011515520358837855 44.56755389667705 -0.045843221065673026 -0.014493671457123485 44.60497335344035 12.505328941869863 -0.042058123118686105 0.0007443393316088194 -0.011616800112319418 -0.018344540443961648 0.02023716016477953 -0.044383601795028836 -0.02493527394016311 -0.008536635828211942 11.064899584314576 0.04790274106408087 0.01621316545123346 0.03163216376696128 -0.004549456489429613 -0.005037575016359893 0.01179855158846442 -0.023555472300618347 -0.04682432499482234 4.809718556644671 0.004602459500972386 -0.024834138491126815 -0.03262061298909742 0.029711911790872226 0.028477176715229622 -0.014464079972236366 -0.01240351730048641 0.04384669228324866 -5.590862360387975 -0.03548571400304995 0.04320277320581656 -6.7074411654533685 -0.030242180089265446 -0.00042292136041166984 -6.711434079156138 0.02524257367194038 -0.015460404928616842 0.00796176588814056 0.02844441368957454 -0.02566944957710597 8.065447507946748 3.5192648371917303 -19.266806521044074 -0.026996930480488162 10.39785773570004 0.015796638587242562 -5.617197595736601 -15.696378154961176 3.1478431179268793 0.03534368229007837 0.01862677141203999 0.024730316560908516 -0.011479508033763481 4.688823669008883 0.012773531919302392 12.428745975464384 -8.288303937443589 6.895608825353353 0.004309751171404602 46.35117684947977 -0.026129689638228298 -4.31932845780781 -14.752316434947158 -3.81272817209396 -0.016603890648918766 -0.004694265521495525 -0.045306827421449265 0.00888676635210252 -10.765493081196167 0.010987222670613606 
0.04772529217588669 -0.020827316876797286 -0.02121307269076424 -0.009724494117721928 -0.005701503071753618 -0.03230577787632572 -4.531342446545856 0.7913593113337559 -0.5002138636948485 -0.9469139594370434 3.328764402432608 0.35988921385998035 -1.19341989630431 -1.854161973275572 -1.4184580531713857 -0.4655996072751331 0.28721802203147184 -0.9433833146053976 -0.65553972260417 12.160936677813268 0.8085416109031411 -0.0069136578147758684 0.9485567563364997 -0.16484330115371484 -0.3835840395382205 -12.491696304248563 0.07338670495864151 -0.6664265307736165 1.0330506814661846 -12.607641311235529 68.30798329365746 14.88357130505509 5.241660811949778 30.067505988760534 7.494788075209241 82.27906007242613 24.455612859820597 -0.27523477747216935 -5.705835401419381 4.52648440830729 -0.07933618806544074 -1.6059366766044312 -0.019643456814647894 -0.03944610658360563 -56.24890099381259 0.03698182971207589 -0.010536910300690962 -56.235511904667206 -38.81094546379687 0.03712915646821594 -0.010344024764718324 0.009014375921570896 0.03263296316948644 0.01104545083346899 -0.0113575289067528 0.02874990589937587 0.0016845722796075267 -36.68300610112189 0.02488183633865694 0.033131658982970255 -0.01560394965204672 0.03243150771229388 0.028670343348487354 -0.040009368712337776 -0.02442562890907415 -0.021333948827634064 -19.752884136129808 -0.022348842497075725 -0.004534858993563049 -0.04457723578909409 -0.02691917598921132 -0.04232227037188584 0.04195766756665697 -0.025650390738065364 0.04665093414118613 24.07985133867023 0.010226581189408777 -0.04438763807189669 28.862571900079963 0.039022999079919615 0.04564358754080163 28.85147266160547 -0.0339626763464937 -0.02765472606004778 4.164678760865882 1.392672932948165 12.54836395644718 -60.26864769279074 25.88780734263017 -21.375210481625835 1.7023359400498117 13.010387086054937 -65.41140540399206 -11.832349287422987 8.623990242550017 -5.997830131660387 -0.46341684639558495 0.04703257996539266 -8.121462976958798 -0.0340335173021125 0.002107800602035885 44.59712158245783 0.03418995600305287 -0.02528883586539961 44.551078495034524 12.466215332156361 0.005281647394375269 0.044855244193504194 -0.034286414412829314 -0.046459466249038676 0.010965527704663061 -0.011198007847231222 0.024509701259039212 -0.04334888611874002 11.108191003789395 -0.023720496743202084 0.007496882308456182 -0.037197186420112556 0.02390760926238773 0.03897625282293425 -0.0015273040881657685 -0.03040443878351283 0.025420194184970036 4.755739804109545 0.009340479593748603 -0.025260931187488136 0.007099179719010003 0.01470306487206115 -0.010040462820523533 -0.0038102545907377477 -0.027540333622161423 -0.040926256871381274 -5.603207207120442 -0.0007189641982815546 -0.02821165988643249 -6.690233690548585 0.024837041453658396 -0.04262200930307283 -6.76502904726538 0.020888793459868164 0.030919179147224793 -0.00779089578152836 0.03472182309493225 0.020652857475438224 8.065952163296572 3.4938363372499692 -19.236273484656248 0.007233296569732518 10.40057527955825 0.04354726748270507 -5.634885774172112 -15.707834743678204 3.1726822452438928 0.025809807653314743 -0.03366534337169434 -0.037073946913469984 -0.006607200612097591 4.745006362087114 -0.02517670915973819 12.449179886431045 -8.20803402981495 6.881566861602585 -0.041366285193412795 46.40636173041252 -0.020581906866316262 -4.369768295163399 -14.788375753068962 -3.8309929351768055 -0.010076242709561227 0.011416695817660994 0.018468955068271342 0.019482807367582622 -10.785334172910842 0.031676349453763825 
0.014615521956792336 0.025818422426351174 0.0007110980177045017 0.02416472353019994 -0.02250409026846214 -0.04191896166429095 -4.502656699232101 0.5622535593577853 -0.5188487205779218 -0.9174952446476954 3.2822089086407833 0.4243880564151854 -1.1796345514612052 -1.8740106047544518 -1.5872818414116017 -0.42159920769702147 0.25895198179761353 -0.9349109039573475 -0.6077226962146264 12.26404429695461 0.7468325842602173 -0.02227802477047723 1.016168246187411 -0.17410018237932462 -0.2865559425415731 -12.393271377515065 0.022345989177882282 -0.7371363159602289 1.0756099901252745 -12.683555884883788 68.5113642484984 14.791058329292836 5.049674814354552 30.875166348618325 7.664839125651094 81.45281328873703 24.557119675077267 -0.3146463274055522 -5.5928250720616965 4.497885137759943 -0.15667361268430446 -1.5910108204623339 -0.0030161176670816703 -0.043922496620473164 -56.20504723118701 -0.013382752862072515 0.048653852083830634 -56.25795512273265 -38.75429559751039 -0.02025796477071528 0.033535783127888255 0.04225874438748285 0.005210287576022443 -0.034222725887499666 -0.028762588633206285 0.038711062453069274 -0.022990874758278122 -36.71148477259317 0.0037472939948138585 -0.04726830283863669 -0.017280656923136718 -0.03091464496392633 -0.042222066362132354 0.006711868957446727 0.033133606849428565 0.0053349284891296145 -19.717917826700525 -0.01461109611724541 0.018786334080407318 0.02160366688227569 -0.02069670110086204 0.03580055019624456 0.029047938840306143 -0.012213850027037997 0.044061750250437556 24.043198206801204 0.006604710235398928 0.03740942297073086 28.883721633243447 -0.005677575645972074 -0.007505057789687852 28.875646733521947 0.009666189728930137 0.043125005046252135 4.210969680898141 1.404282932948894 12.517878221763063 -60.35804442152485 26.10515498762157 -21.361889679169938 0.8760550648973797 12.48604118646419 -64.80660359455148 -11.780616644394199 8.69506663935043 -5.969022025095051 -0.4877078922399711 0.061814846301075074 -8.079098268159898 -0.005288654961717911 -0.01375678860606202 44.60859873949916 0.0014288780658261804 0.03686722275493297 44.58747247982248 12.467595873959628 -0.040445142691698924 0.008413568554363107 -0.033882028503919914 0.012669849386376364 0.005690327455008816 -0.009277282899727799 -0.02186916879525265 0.007002059363337266 11.115471033344269 0.008845007321141424 0.04405612065549131 -0.01681377228270807 0.01593318339475765 -0.008967635991384717 -0.046289438881571186 0.00841761297788113 -0.004234921547157299 4.776856899298065 0.048109392897160715 0.0030142034535399743 0.0008893038197857945 -0.004997078899340424 0.022369804014811617 -0.015421991303584083 -0.03174500795497575 0.006725505274808273 -5.589074747241449 0.005799100107004535 0.005203137965313767 -6.746699255539942 0.007329945909260165 -0.03423783506267361 -6.673588006934515 0.025734553916690817 -0.04245402652417989 -0.04225379035818022 0.049796807428495286 0.03286617778125634 8.084996091050366 3.5125885370674674 -19.229639475739134 -0.04192948448802572 10.41023668828418 -0.010411154707098937 -5.59228977735268 -15.665001629368074 3.1983292071652216 -0.0026222596683821756 -0.00875463133489895 -0.013001059730319715 -0.013273148988181771 4.671203302426701 0.0012052016779623964 12.439682745874943 -8.26499620337781 6.904460315943264 0.04770385441525732 46.37792578797317 0.01856991345346572 -4.333569658827385 -14.771523276588889 -3.8285350838132337 -0.01143004036292733 0.006063812229869568 0.04061640857920159 0.0034309465207043558 -10.79372009850279 -0.00028858363231149355 
